<svg viewBox="0 0 158 35" fill="none" xmlns="http://www.w3.org/2000/svg">
<path fill-rule="evenodd" clip-rule="evenodd" d="M13.6475 0.918457H10.9557C10.0266 0.918457 9.27344 1.67167 9.27344 2.60075V5.29273C9.27344 6.22159 10.0266 6.97502 10.9557 6.97502H13.6475C14.5766 6.97502 15.33 6.22159 15.33 5.29273V2.60075C15.33 1.67167 14.5766 0.918457 13.6475 0.918457Z" fill="#1CCC5B"/>
<path fill-rule="evenodd" clip-rule="evenodd" d="M16.8636 32.6332L18.3503 28.1729H6.24219C6.24219 28.1764 7.12966 30.8401 7.72692 32.6334C8.02063 33.5148 9.01213 34.2294 9.94122 34.2294H14.6493C15.5784 34.2294 16.5699 33.5148 16.8636 32.6332Z" fill="#1CCC5B"/>
<path fill-rule="evenodd" clip-rule="evenodd" d="M3.21484 19.0884V19.091L5.23202 25.1449H19.3601L21.3784 19.0884H3.21484Z" fill="#1CCC5B"/>
<path fill-rule="evenodd" clip-rule="evenodd" d="M23.8745 11.5996C24.1682 10.7181 23.6533 10.0034 22.7242 10.0034H1.86976C0.940672 10.0034 0.425537 10.7181 0.719243 11.5996L2.20551 16.06H22.3882L23.8745 11.5996Z" fill="#1CCC5B"/>
<path fill-rule="evenodd" clip-rule="evenodd" d="M41.4572 29.7835H38.0453C37.9136 29.7835 37.809 29.6527 37.7831 29.5741C36.707 26.6877 34.1614 17.7132 33.8203 15.9813C33.8203 15.8228 33.8724 15.7441 34.0569 15.7441H36.2079C36.3658 15.7441 36.418 15.8503 36.4442 15.9813C37.2313 19.3143 38.6489 24.9818 39.4884 27.58C39.5146 27.7108 39.6195 27.737 39.8561 27.737C40.1189 27.737 40.1975 27.7108 40.2496 27.58C41.0895 24.9818 42.454 19.3143 43.2146 15.9813C43.2408 15.8228 43.3726 15.7441 43.5561 15.7441H45.5766C45.7346 15.7441 45.787 15.8765 45.787 16.0076C45.4721 17.7132 42.7955 26.845 41.7715 29.5741C41.7193 29.7052 41.6407 29.7835 41.4572 29.7835Z" fill="#262626"/>
<path fill-rule="evenodd" clip-rule="evenodd" d="M51.5055 13.7759C51.3482 13.7759 51.2434 13.671 51.2434 13.5137L53.4733 8.7382C53.5788 8.58121 53.7096 8.4751 53.8669 8.4751H55.7308C55.8881 8.4751 55.9936 8.58121 55.9936 8.7382L52.9231 13.3567C52.6865 13.7234 52.5554 13.7759 52.1088 13.7759H51.5055ZM54.8909 23.5375C54.8909 23.433 54.8385 23.3805 54.7339 23.3805H52.3451C50.141 23.3805 49.5639 23.8521 49.5639 25.9538C49.5639 28.0262 50.0099 28.2884 52.6341 28.2884C53.3685 28.2884 54.2614 28.2359 54.6553 28.1311C54.8647 28.0786 54.8909 28.0262 54.8909 27.9476V23.5375ZM48.7503 17.7377C48.593 17.7652 48.3829 17.7652 48.3564 17.6082L48.1723 16.3214C48.1463 16.1641 48.1723 16.0071 48.3302 15.9547C49.3273 15.665 50.6397 15.4815 52.3975 15.4815C55.6521 15.4815 57.3319 16.6897 57.3319 19.7592V29.2066C57.3319 29.3639 57.2794 29.495 56.9904 29.5998C56.2554 29.8355 54.6291 30.0465 52.87 30.0465C48.3043 30.0465 46.9922 29.1282 46.9922 26.2681C46.9922 23.7473 47.5955 22.3834 51.4531 21.9118L54.7339 21.5176C54.8385 21.4914 54.8909 21.4652 54.8909 21.3603V20.0226C54.8909 18.0011 54.051 17.503 51.7945 17.503C50.8489 17.503 49.5898 17.6082 48.7503 17.7377Z" fill="#262626"/>
<path fill-rule="evenodd" clip-rule="evenodd" d="M60.2455 29.7833C60.1662 29.7574 60.0876 29.7309 60.0876 29.6001L60.1931 27.9204C60.1931 27.8417 60.2983 27.7893 60.4028 27.8155C61.3213 28.0003 62.3972 28.0789 63.2636 28.0789C65.5194 28.0789 65.8871 27.8417 65.8871 26.1898C65.8871 25.2176 65.3362 24.7197 63.1843 23.1711C61.0323 21.6224 60.2193 20.9661 60.2193 19.2617C60.2193 16.5589 61.4259 15.4818 64.864 15.4818C66.0975 15.4818 67.1467 15.5604 67.8555 15.6915C67.9342 15.7177 68.0128 15.744 68.0128 15.8763L67.908 17.556C67.908 17.6344 67.8031 17.6868 67.6985 17.6606C67.0157 17.556 66.0188 17.4249 65.1521 17.4249C63.2105 17.4249 62.5548 17.556 62.5548 18.9983C62.5548 20.154 63.1318 20.5469 65.2838 21.9645C67.5406 23.4607 68.2756 24.4825 68.2756 26.0587C68.2756 29.1544 66.8843 30.0467 63.6827 30.0467C62.4493 30.0467 61.0582 29.9406 60.2455 29.7833ZM61.0064 8.89453C61.4521 8.89453 61.5838 8.94696 61.8728 9.2625L64.0763 11.9132C64.1549 11.9656 64.2342 11.9915 64.3391 11.9915C64.4964 11.9915 64.5756 11.9656 64.6543 11.9132L66.9108 9.2625C67.1992 8.94696 67.2785 8.89453 67.6723 8.89453H68.4588C68.6168 8.89453 68.7216 8.9994 68.7216 9.15795L65.5725 13.6713C65.467 13.8283 65.3362 13.9347 65.1783 13.9347H63.5782C63.4209 13.9347 63.2898 13.8283 63.1843 13.6713L60.0352 9.15795C60.0352 8.9994 60.14 8.89453 60.2983 8.89453H61.0064Z" fill="#262626"/>
<path fill-rule="evenodd" clip-rule="evenodd" d="M76.8555 10.759C76.8555 10.6017 76.9603 10.4956 77.1176 10.4956H79.1123C79.2702 10.4956 79.3751 10.6017 79.3751 10.759V15.5607C79.3751 15.7177 79.4537 15.7702 79.6641 15.7702C80.4771 15.6656 81.8685 15.4821 82.7074 15.4821C86.3032 15.4821 87.6152 16.4527 87.6152 20.285V29.5214C87.6152 29.6787 87.5098 29.7836 87.3525 29.7836H85.3584C85.2011 29.7836 85.0956 29.6787 85.0956 29.5214V20.5734C85.0956 18.1063 84.5972 17.4249 82.0779 17.4249C81.1069 17.4249 80.215 17.5036 79.6376 17.6347C79.4537 17.6871 79.3751 17.738 79.3751 17.9227V29.5214C79.3751 29.6787 79.2702 29.7836 79.1123 29.7836H77.1176C76.9603 29.7836 76.8555 29.6787 76.8555 29.5214V10.759Z" fill="#262626"/>
<path fill-rule="evenodd" clip-rule="evenodd" d="M94.2816 27.4489C94.7011 27.8943 95.2525 28.0791 96.6171 28.0791C98.0599 28.0791 98.5839 27.8943 98.9784 27.4489C99.6348 26.7401 99.9491 24.7985 99.9491 22.6472C99.9491 20.4684 99.6348 18.7625 98.9784 18.0537C98.5839 17.6086 98.0599 17.4251 96.6692 17.4251C95.2525 17.4251 94.7011 17.6086 94.2816 18.0537C93.6252 18.7625 93.3103 20.4684 93.3103 22.6472C93.3103 24.7985 93.6252 26.7401 94.2816 27.4489ZM100.92 28.6305C100.028 29.6265 98.6904 30.0469 96.6171 30.0469C94.5175 30.0469 93.2841 29.6265 92.3918 28.6305C91.4471 27.5276 90.7383 25.2714 90.7383 22.6472C90.7383 19.9968 91.4212 17.9229 92.3918 16.8471C93.2841 15.8228 94.6224 15.4819 96.6692 15.4819C98.769 15.4819 100.028 15.8502 100.92 16.8471C101.866 17.9491 102.521 19.9968 102.521 22.6472C102.521 25.2714 101.866 27.5276 100.92 28.6305Z" fill="#262626"/>
<path fill-rule="evenodd" clip-rule="evenodd" d="M104.939 29.7835C104.86 29.7576 104.781 29.731 104.781 29.6003L104.886 27.9205C104.886 27.8419 104.991 27.7894 105.096 27.8156C106.014 28.0004 107.09 28.0791 107.956 28.0791C110.213 28.0791 110.58 27.8419 110.58 26.1899C110.58 25.2177 110.028 24.7199 107.877 23.1712C105.724 21.6226 104.912 20.9662 104.912 19.2618C104.912 16.559 106.119 15.4819 109.557 15.4819C110.791 15.4819 111.839 15.5606 112.548 15.6917C112.626 15.7179 112.705 15.7441 112.705 15.8764L112.6 17.5562C112.6 17.6345 112.495 17.6869 112.39 17.6607C111.708 17.5562 110.711 17.4251 109.845 17.4251C107.903 17.4251 107.247 17.5562 107.247 18.9984C107.247 20.1541 107.825 20.5471 109.976 21.9646C112.233 23.4609 112.968 24.4827 112.968 26.0588C112.968 29.1546 111.577 30.0469 108.375 30.0469C107.142 30.0469 105.751 29.9408 104.939 29.7835Z" fill="#262626"/>
<path fill-rule="evenodd" clip-rule="evenodd" d="M120.499 30.0467C118.531 30.0467 117.613 29.0233 117.613 27.3439V17.8425C117.613 17.738 117.561 17.6868 117.456 17.6868H115.357C115.199 17.6868 115.094 17.5819 115.094 17.4249V16.0073C115.094 15.85 115.199 15.7439 115.357 15.7439H117.456C117.561 15.7439 117.613 15.6912 117.613 15.5866V12.3061C117.613 12.1488 117.718 12.0439 117.875 12.0439H119.87C120.028 12.0439 120.132 12.1488 120.132 12.3061V15.5866C120.132 15.6912 120.185 15.7439 120.29 15.7439H122.757C122.914 15.7439 123.019 15.85 123.019 16.0073V17.4249C123.019 17.5819 122.914 17.6868 122.757 17.6868H120.29C120.185 17.6868 120.132 17.738 120.132 17.8425V27.028C120.132 27.8155 120.447 28.1313 121.287 28.1313H122.364C122.495 28.1313 122.625 28.1838 122.625 28.3935L122.574 29.4949C122.574 29.6522 122.469 29.8095 122.338 29.8357C121.786 29.9406 121.13 30.0467 120.499 30.0467Z" fill="#262626"/>
<path fill-rule="evenodd" clip-rule="evenodd" d="M125.93 29.7834C125.773 29.7834 125.669 29.6789 125.669 29.5216V16.0075C125.669 15.8502 125.773 15.7441 125.93 15.7441H127.925C128.082 15.7441 128.187 15.8502 128.187 16.0075V29.5216C128.187 29.6789 128.082 29.7834 127.925 29.7834H125.93ZM125.826 12.9888C125.669 12.9888 125.562 12.8839 125.562 12.7266V10.5216C125.562 10.3646 125.669 10.2598 125.826 10.2598H128.056C128.213 10.2598 128.319 10.3646 128.319 10.5216V12.7266C128.319 12.8839 128.213 12.9888 128.056 12.9888H125.826Z" fill="#262626"/>
<path fill-rule="evenodd" clip-rule="evenodd" d="M140.601 29.7835C140.443 29.7835 140.338 29.6789 140.338 29.5216V20.4946C140.338 18.0275 139.839 17.4251 137.189 17.4251C136.218 17.4251 135.457 17.5034 134.879 17.6345C134.696 17.6869 134.617 17.7381 134.617 17.9229V29.5216C134.617 29.6789 134.512 29.7835 134.355 29.7835H132.36C132.203 29.7835 132.098 29.6789 132.098 29.5216V16.2956C132.098 16.1383 132.203 16.0599 132.36 16.0334C133.777 15.7703 135.876 15.4819 137.189 15.4819C141.807 15.4819 142.857 16.4791 142.857 20.3111V29.5216C142.857 29.6789 142.752 29.7835 142.595 29.7835H140.601Z" fill="#262626"/>
<path fill-rule="evenodd" clip-rule="evenodd" d="M154.932 27.002C155.089 26.9233 155.115 26.845 155.115 26.6877V17.975C155.115 17.8427 155.089 17.7132 154.932 17.6607C154.537 17.5296 153.697 17.4248 152.805 17.4248C149.919 17.4248 149.132 18.1585 149.132 22.2789C149.132 26.3731 149.577 27.159 153.015 27.159C154.038 27.159 154.642 27.1331 154.932 27.002ZM157.635 29.5999C157.635 33.6155 155.482 34.5078 151.861 34.5078C150.312 34.5078 148.213 34.2459 147.006 33.8252C146.901 33.799 146.875 33.6679 146.901 33.5368L147.164 32.2257C147.19 32.0946 147.321 32.0159 147.478 32.0684C148.423 32.3568 150.338 32.6174 151.573 32.6174C154.511 32.6174 155.142 31.936 155.142 29.0762C155.142 28.9451 155.089 28.8927 154.958 28.8927C154.354 28.9451 153.697 28.9711 152.962 28.9711C147.819 28.9711 146.508 27.3965 146.508 22.2789C146.508 17.5296 148.292 15.4819 152.753 15.4819C154.012 15.4819 155.929 15.613 157.371 15.9289C157.582 15.981 157.635 16.0859 157.635 16.2694V29.5999Z" fill="#262626"/>
</svg>
